<svg xmlns="http://www.w3.org/2000/svg" width="212" height="46" viewBox="0 0 212 46">
  <g id="Group_36" data-name="Group 36" transform="translate(-5309 -977)">
    <g id="btn" transform="translate(4841 -397)">
      <rect id="Rectangle_37" data-name="Rectangle 37" width="150" height="46" rx="4" transform="translate(468 1374)" fill="#33a0ff" opacity="0.1"/>
      <path id="cart_2" d="M428.932,523a1.993,1.993,0,0,0,1.952-1.608l1-5A2,2,0,0,0,429.927,514h-9.956v-1a1,1,0,0,0-1-1H416.98a1,1,0,0,0,0,2h1v10a2,2,0,1,0,1.991,2h6.969a1.992,1.992,0,1,0,1.992-2h-8.961v-1Zm1-7-1,5h-8.961v-5h9.956Z" transform="translate(72.029 877)" fill="#33a0ff" fill-rule="evenodd"/>
      <text id="Add_To_Cart" data-name="Add To Cart" transform="translate(518.5 1401.5)" fill="#33a0ff" font-size="14" font-family="Helvetica" letter-spacing="0.025em"><tspan x="0" y="0">Add To Cart</tspan></text>
    </g>
    <g id="btn-2" data-name="btn" transform="translate(5017 -397)">
      <path id="hearts" d="M587,579a3,3,0,0,1,2.24,4.99c-.55.62-5.24,5.01-5.24,5.01s-4.7-4.39-5.25-5.02A2.965,2.965,0,0,1,578,582a3,3,0,0,1,6,0,3,3,0,0,1,3-3m0-2a4.973,4.973,0,0,0-3,1,5,5,0,0,0-6.746,7.3c.562.644,4.261,4.108,5.381,5.154a2,2,0,0,0,2.732,0c1.116-1.045,4.8-4.5,5.369-5.143A5,5,0,0,0,587,577Z" transform="translate(-103.017 813)" fill="#33a0ff" fill-rule="evenodd"/>
      <rect id="Rectangle_38" data-name="Rectangle 38" width="46" height="46" rx="4" transform="translate(458 1374)" fill="#33a0ff" opacity="0.1"/>
    </g>
  </g>
</svg>
